<mxfile host="Electron" modified="2024-04-29T11:25:28.678Z" agent="Mozilla/5.0 (Windows NT 10.0; Win64; x64) AppleWebKit/537.36 (KHTML, like Gecko) draw.io/22.1.2 Chrome/114.0.5735.289 Electron/25.9.4 Safari/537.36" etag="nOaBiKchpmAzle2Y-5Pg" version="22.1.2" type="device">
  <diagram name="Page-1" id="R6TBppXfZWCXH75fYYaK">
    <mxGraphModel dx="989" dy="610" grid="1" gridSize="10" guides="1" tooltips="1" connect="1" arrows="1" fold="1" page="1" pageScale="1" pageWidth="827" pageHeight="1169" math="0" shadow="0">
      <root>
        <mxCell id="0" />
        <mxCell id="1" parent="0" />
        <mxCell id="SBMeFAJlEWchc6X-bSF--1" value="&lt;b&gt;&lt;font style=&quot;font-size: 48px;&quot;&gt;SDL Engine&lt;/font&gt;&lt;/b&gt;" style="text;html=1;strokeColor=none;fillColor=none;align=center;verticalAlign=middle;whiteSpace=wrap;rounded=0;" vertex="1" parent="1">
          <mxGeometry x="274" width="280" height="60" as="geometry" />
        </mxCell>
        <mxCell id="SBMeFAJlEWchc6X-bSF--2" value="Transform" style="rounded=0;whiteSpace=wrap;html=1;" vertex="1" parent="1">
          <mxGeometry x="40" y="200" width="120" height="60" as="geometry" />
        </mxCell>
        <mxCell id="SBMeFAJlEWchc6X-bSF--3" value="Vector2" style="rounded=0;whiteSpace=wrap;html=1;" vertex="1" parent="1">
          <mxGeometry x="40" y="120" width="120" height="60" as="geometry" />
        </mxCell>
        <mxCell id="SBMeFAJlEWchc6X-bSF--4" value="&lt;font style=&quot;font-size: 24px;&quot;&gt;&lt;b&gt;Mathematics:&lt;/b&gt;&lt;/font&gt;" style="text;html=1;strokeColor=none;fillColor=none;align=left;verticalAlign=middle;whiteSpace=wrap;rounded=0;" vertex="1" parent="1">
          <mxGeometry x="40" y="80" width="160" height="30" as="geometry" />
        </mxCell>
        <mxCell id="SBMeFAJlEWchc6X-bSF--5" value="&lt;font style=&quot;font-size: 24px;&quot;&gt;&lt;b&gt;Collisions:&lt;/b&gt;&lt;/font&gt;" style="text;html=1;strokeColor=none;fillColor=none;align=left;verticalAlign=middle;whiteSpace=wrap;rounded=0;" vertex="1" parent="1">
          <mxGeometry x="240" y="80" width="130" height="30" as="geometry" />
        </mxCell>
        <mxCell id="SBMeFAJlEWchc6X-bSF--6" value="CollisionHandler" style="rounded=0;whiteSpace=wrap;html=1;" vertex="1" parent="1">
          <mxGeometry x="240" y="120" width="120" height="60" as="geometry" />
        </mxCell>
        <mxCell id="SBMeFAJlEWchc6X-bSF--7" value="BoxCollider" style="rounded=0;whiteSpace=wrap;html=1;" vertex="1" parent="1">
          <mxGeometry x="240" y="200" width="120" height="60" as="geometry" />
        </mxCell>
        <mxCell id="SBMeFAJlEWchc6X-bSF--8" value="CircleCollider" style="rounded=0;whiteSpace=wrap;html=1;" vertex="1" parent="1">
          <mxGeometry x="240" y="280" width="120" height="60" as="geometry" />
        </mxCell>
        <mxCell id="SBMeFAJlEWchc6X-bSF--10" value="PhysicsHandler" style="rounded=0;whiteSpace=wrap;html=1;" vertex="1" parent="1">
          <mxGeometry x="440" y="120" width="120" height="60" as="geometry" />
        </mxCell>
        <mxCell id="SBMeFAJlEWchc6X-bSF--11" value="&lt;font style=&quot;font-size: 24px;&quot;&gt;&lt;b&gt;Physics:&lt;/b&gt;&lt;/font&gt;" style="text;html=1;strokeColor=none;fillColor=none;align=left;verticalAlign=middle;whiteSpace=wrap;rounded=0;" vertex="1" parent="1">
          <mxGeometry x="440" y="80" width="130" height="30" as="geometry" />
        </mxCell>
        <mxCell id="SBMeFAJlEWchc6X-bSF--12" value="Rigidbody" style="rounded=0;whiteSpace=wrap;html=1;" vertex="1" parent="1">
          <mxGeometry x="440" y="200" width="120" height="60" as="geometry" />
        </mxCell>
        <mxCell id="SBMeFAJlEWchc6X-bSF--13" value="&lt;font style=&quot;font-size: 24px;&quot;&gt;&lt;b&gt;Input:&lt;/b&gt;&lt;/font&gt;" style="text;html=1;strokeColor=none;fillColor=none;align=left;verticalAlign=middle;whiteSpace=wrap;rounded=0;" vertex="1" parent="1">
          <mxGeometry x="640" y="80" width="130" height="30" as="geometry" />
        </mxCell>
        <mxCell id="SBMeFAJlEWchc6X-bSF--14" value="InputHandler" style="rounded=0;whiteSpace=wrap;html=1;" vertex="1" parent="1">
          <mxGeometry x="640" y="120" width="120" height="60" as="geometry" />
        </mxCell>
        <mxCell id="SBMeFAJlEWchc6X-bSF--15" value="&lt;font style=&quot;font-size: 24px;&quot;&gt;&lt;b&gt;Textures:&lt;/b&gt;&lt;/font&gt;" style="text;html=1;strokeColor=none;fillColor=none;align=left;verticalAlign=middle;whiteSpace=wrap;rounded=0;" vertex="1" parent="1">
          <mxGeometry x="40" y="360" width="130" height="30" as="geometry" />
        </mxCell>
        <mxCell id="SBMeFAJlEWchc6X-bSF--22" style="edgeStyle=orthogonalEdgeStyle;rounded=0;orthogonalLoop=1;jettySize=auto;html=1;exitX=0.25;exitY=1;exitDx=0;exitDy=0;entryX=0;entryY=0.5;entryDx=0;entryDy=0;" edge="1" parent="1" source="SBMeFAJlEWchc6X-bSF--16" target="SBMeFAJlEWchc6X-bSF--21">
          <mxGeometry relative="1" as="geometry" />
        </mxCell>
        <mxCell id="SBMeFAJlEWchc6X-bSF--24" style="edgeStyle=orthogonalEdgeStyle;rounded=0;orthogonalLoop=1;jettySize=auto;html=1;exitX=0.25;exitY=1;exitDx=0;exitDy=0;entryX=0;entryY=0.5;entryDx=0;entryDy=0;" edge="1" parent="1" source="SBMeFAJlEWchc6X-bSF--16" target="SBMeFAJlEWchc6X-bSF--23">
          <mxGeometry relative="1" as="geometry" />
        </mxCell>
        <mxCell id="SBMeFAJlEWchc6X-bSF--16" value="TextureHandler" style="rounded=0;whiteSpace=wrap;html=1;" vertex="1" parent="1">
          <mxGeometry x="40" y="400" width="120" height="60" as="geometry" />
        </mxCell>
        <mxCell id="SBMeFAJlEWchc6X-bSF--17" value="&lt;font style=&quot;font-size: 24px;&quot;&gt;&lt;b&gt;Audio:&lt;/b&gt;&lt;/font&gt;" style="text;html=1;strokeColor=none;fillColor=none;align=left;verticalAlign=middle;whiteSpace=wrap;rounded=0;" vertex="1" parent="1">
          <mxGeometry x="240" y="360" width="130" height="30" as="geometry" />
        </mxCell>
        <mxCell id="SBMeFAJlEWchc6X-bSF--27" style="edgeStyle=orthogonalEdgeStyle;rounded=0;orthogonalLoop=1;jettySize=auto;html=1;exitX=0.25;exitY=1;exitDx=0;exitDy=0;entryX=0;entryY=0.5;entryDx=0;entryDy=0;" edge="1" parent="1" source="SBMeFAJlEWchc6X-bSF--18" target="SBMeFAJlEWchc6X-bSF--25">
          <mxGeometry relative="1" as="geometry" />
        </mxCell>
        <mxCell id="SBMeFAJlEWchc6X-bSF--28" style="edgeStyle=orthogonalEdgeStyle;rounded=0;orthogonalLoop=1;jettySize=auto;html=1;exitX=0.25;exitY=1;exitDx=0;exitDy=0;entryX=0;entryY=0.5;entryDx=0;entryDy=0;" edge="1" parent="1" source="SBMeFAJlEWchc6X-bSF--18" target="SBMeFAJlEWchc6X-bSF--26">
          <mxGeometry relative="1" as="geometry" />
        </mxCell>
        <mxCell id="SBMeFAJlEWchc6X-bSF--18" value="AudioHandler" style="rounded=0;whiteSpace=wrap;html=1;" vertex="1" parent="1">
          <mxGeometry x="240" y="400" width="120" height="60" as="geometry" />
        </mxCell>
        <mxCell id="SBMeFAJlEWchc6X-bSF--19" value="&lt;font style=&quot;font-size: 24px;&quot;&gt;&lt;b&gt;UI:&lt;/b&gt;&lt;/font&gt;" style="text;html=1;strokeColor=none;fillColor=none;align=left;verticalAlign=middle;whiteSpace=wrap;rounded=0;" vertex="1" parent="1">
          <mxGeometry x="440" y="360" width="130" height="30" as="geometry" />
        </mxCell>
        <mxCell id="SBMeFAJlEWchc6X-bSF--20" value="Button" style="rounded=0;whiteSpace=wrap;html=1;" vertex="1" parent="1">
          <mxGeometry x="440" y="400" width="120" height="60" as="geometry" />
        </mxCell>
        <mxCell id="SBMeFAJlEWchc6X-bSF--21" value="Images" style="rounded=0;whiteSpace=wrap;html=1;" vertex="1" parent="1">
          <mxGeometry x="110" y="470" width="50" height="20" as="geometry" />
        </mxCell>
        <mxCell id="SBMeFAJlEWchc6X-bSF--23" value="Text" style="rounded=0;whiteSpace=wrap;html=1;" vertex="1" parent="1">
          <mxGeometry x="110" y="500" width="50" height="20" as="geometry" />
        </mxCell>
        <mxCell id="SBMeFAJlEWchc6X-bSF--25" value="Music" style="rounded=0;whiteSpace=wrap;html=1;" vertex="1" parent="1">
          <mxGeometry x="310" y="470" width="50" height="20" as="geometry" />
        </mxCell>
        <mxCell id="SBMeFAJlEWchc6X-bSF--26" value="SFX" style="rounded=0;whiteSpace=wrap;html=1;" vertex="1" parent="1">
          <mxGeometry x="310" y="500" width="50" height="20" as="geometry" />
        </mxCell>
        <mxCell id="SBMeFAJlEWchc6X-bSF--29" value="Text" style="rounded=0;whiteSpace=wrap;html=1;" vertex="1" parent="1">
          <mxGeometry x="440" y="480" width="120" height="60" as="geometry" />
        </mxCell>
        <mxCell id="SBMeFAJlEWchc6X-bSF--30" value="&lt;font style=&quot;font-size: 24px;&quot;&gt;&lt;b&gt;Time:&lt;/b&gt;&lt;/font&gt;" style="text;html=1;strokeColor=none;fillColor=none;align=left;verticalAlign=middle;whiteSpace=wrap;rounded=0;" vertex="1" parent="1">
          <mxGeometry x="640" y="360" width="130" height="30" as="geometry" />
        </mxCell>
        <mxCell id="SBMeFAJlEWchc6X-bSF--31" value="TimeHandler" style="rounded=0;whiteSpace=wrap;html=1;" vertex="1" parent="1">
          <mxGeometry x="640" y="400" width="120" height="60" as="geometry" />
        </mxCell>
        <mxCell id="SBMeFAJlEWchc6X-bSF--32" value="&lt;font style=&quot;font-size: 24px;&quot;&gt;&lt;b&gt;Animations:&lt;/b&gt;&lt;/font&gt;" style="text;html=1;strokeColor=none;fillColor=none;align=left;verticalAlign=middle;whiteSpace=wrap;rounded=0;" vertex="1" parent="1">
          <mxGeometry x="40" y="560" width="130" height="30" as="geometry" />
        </mxCell>
        <mxCell id="SBMeFAJlEWchc6X-bSF--33" value="Animator" style="rounded=0;whiteSpace=wrap;html=1;" vertex="1" parent="1">
          <mxGeometry x="40" y="600" width="120" height="60" as="geometry" />
        </mxCell>
        <mxCell id="SBMeFAJlEWchc6X-bSF--34" value="&lt;font style=&quot;font-size: 24px;&quot;&gt;&lt;b&gt;Viewing:&lt;/b&gt;&lt;/font&gt;" style="text;html=1;strokeColor=none;fillColor=none;align=left;verticalAlign=middle;whiteSpace=wrap;rounded=0;" vertex="1" parent="1">
          <mxGeometry x="240" y="560" width="130" height="30" as="geometry" />
        </mxCell>
        <mxCell id="SBMeFAJlEWchc6X-bSF--35" value="Camera" style="rounded=0;whiteSpace=wrap;html=1;" vertex="1" parent="1">
          <mxGeometry x="240" y="600" width="120" height="60" as="geometry" />
        </mxCell>
        <mxCell id="SBMeFAJlEWchc6X-bSF--36" value="&lt;font style=&quot;font-size: 24px;&quot;&gt;&lt;b&gt;Game Object:&lt;/b&gt;&lt;/font&gt;" style="text;html=1;strokeColor=none;fillColor=none;align=left;verticalAlign=middle;whiteSpace=wrap;rounded=0;" vertex="1" parent="1">
          <mxGeometry x="440" y="560" width="160" height="30" as="geometry" />
        </mxCell>
        <mxCell id="SBMeFAJlEWchc6X-bSF--37" value="GameObjectHandler" style="rounded=0;whiteSpace=wrap;html=1;" vertex="1" parent="1">
          <mxGeometry x="440" y="600" width="120" height="60" as="geometry" />
        </mxCell>
        <mxCell id="SBMeFAJlEWchc6X-bSF--38" value="GameObject" style="rounded=0;whiteSpace=wrap;html=1;" vertex="1" parent="1">
          <mxGeometry x="440" y="680" width="120" height="60" as="geometry" />
        </mxCell>
        <mxCell id="SBMeFAJlEWchc6X-bSF--40" value="&lt;font style=&quot;font-size: 24px;&quot;&gt;&lt;b&gt;File Loading:&lt;/b&gt;&lt;/font&gt;" style="text;html=1;strokeColor=none;fillColor=none;align=left;verticalAlign=middle;whiteSpace=wrap;rounded=0;" vertex="1" parent="1">
          <mxGeometry x="640" y="560" width="160" height="30" as="geometry" />
        </mxCell>
        <mxCell id="SBMeFAJlEWchc6X-bSF--44" style="edgeStyle=orthogonalEdgeStyle;rounded=0;orthogonalLoop=1;jettySize=auto;html=1;exitX=0.25;exitY=1;exitDx=0;exitDy=0;entryX=0;entryY=0.5;entryDx=0;entryDy=0;" edge="1" parent="1" source="SBMeFAJlEWchc6X-bSF--41" target="SBMeFAJlEWchc6X-bSF--42">
          <mxGeometry relative="1" as="geometry" />
        </mxCell>
        <mxCell id="SBMeFAJlEWchc6X-bSF--45" style="edgeStyle=orthogonalEdgeStyle;rounded=0;orthogonalLoop=1;jettySize=auto;html=1;exitX=0.25;exitY=1;exitDx=0;exitDy=0;entryX=0;entryY=0.5;entryDx=0;entryDy=0;" edge="1" parent="1" source="SBMeFAJlEWchc6X-bSF--41" target="SBMeFAJlEWchc6X-bSF--43">
          <mxGeometry relative="1" as="geometry" />
        </mxCell>
        <mxCell id="SBMeFAJlEWchc6X-bSF--41" value="ExternalFileHandler" style="rounded=0;whiteSpace=wrap;html=1;" vertex="1" parent="1">
          <mxGeometry x="640" y="600" width="120" height="60" as="geometry" />
        </mxCell>
        <mxCell id="SBMeFAJlEWchc6X-bSF--42" value="Saving" style="rounded=0;whiteSpace=wrap;html=1;" vertex="1" parent="1">
          <mxGeometry x="710" y="670" width="50" height="20" as="geometry" />
        </mxCell>
        <mxCell id="SBMeFAJlEWchc6X-bSF--43" value="Loading" style="rounded=0;whiteSpace=wrap;html=1;" vertex="1" parent="1">
          <mxGeometry x="710" y="700" width="50" height="20" as="geometry" />
        </mxCell>
        <mxCell id="SBMeFAJlEWchc6X-bSF--46" value="Scene" style="rounded=0;whiteSpace=wrap;html=1;" vertex="1" parent="1">
          <mxGeometry x="240" y="680" width="120" height="60" as="geometry" />
        </mxCell>
      </root>
    </mxGraphModel>
  </diagram>
</mxfile>
